<?xml version="1.0" encoding="utf-8"?>
<!-- Generator: Adobe Illustrator 24.2.3, SVG Export Plug-In . SVG Version: 6.00 Build 0)  -->
<svg version="1.1" xmlns="http://www.w3.org/2000/svg" xmlns:xlink="http://www.w3.org/1999/xlink" x="0px" y="0px"
	 viewBox="0 0 214.8 82.4" style="enable-background:new 0 0 214.8 82.4;" xml:space="preserve">
<style type="text/css">
	.st0{fill:#FFFFFF;}
	.st1{fill:#D68589;}
	.st2{fill:#6F473B;}
	.st3{fill:#B18C72;}
	.st4{fill:#28252C;}
	.st5{fill:#130D0D;}
	.st6{fill:#523120;}
	.st7{fill:#020106;}
	.st8{fill:#C9A585;}
	.st9{fill:#DCDDE2;}
	.st10{fill:#191919;}
	.st11{fill:#2E2E2E;}
	.st12{fill:#0C0B11;}
</style>
<g id="Layer_1">
	<path class="st0" d="M114.3,50.1c-0.2,3.5-1.1,6.5-2.8,9.2c-1.7,2.7-4.1,4.7-7.2,6.2c-3.1,1.5-6.6,2.2-10.6,2.2
		c-6.5,0-11.7-2.1-15.4-6.4s-5.6-10.3-5.6-18v-2.5c0-4.9,0.8-9.1,2.5-12.8c1.7-3.7,4.1-6.5,7.3-8.5c3.2-2,6.9-3,11.1-3
		c6,0,10.9,1.6,14.6,4.8c3.7,3.2,5.8,7.6,6.3,13.1h-12c-0.1-3-0.9-5.2-2.3-6.5c-1.4-1.3-3.6-2-6.6-2c-3,0-5.2,1.1-6.6,3.3
		c-1.4,2.2-2.1,5.8-2.2,10.7v3.5c0,5.3,0.7,9.1,2,11.4s3.6,3.4,6.9,3.4c2.8,0,4.9-0.6,6.3-1.9c1.5-1.3,2.2-3.4,2.3-6.2H114.3z"/>
	<path class="st0" d="M118,48.1c0-3.7,0.7-7,2.2-9.9c1.4-2.9,3.5-5.1,6.2-6.6c2.7-1.5,5.8-2.3,9.5-2.3c5.5,0,9.9,1.7,13.1,5.1
		c3.2,3.4,4.8,8.1,4.8,14v0.4c0,5.8-1.6,10.3-4.8,13.7s-7.5,5.1-13,5.1c-5.3,0-9.5-1.6-12.7-4.7c-3.2-3.2-4.9-7.4-5.2-12.8L118,48.1
		z M129.5,48.8c0,3.4,0.5,5.9,1.6,7.5c1.1,1.6,2.7,2.4,4.8,2.4c4.1,0,6.2-3.2,6.3-9.5v-1.2c0-6.6-2.1-9.9-6.4-9.9
		c-3.9,0-5.9,2.9-6.3,8.6L129.5,48.8z"/>
	<path class="st0" d="M170.9,66.9h-11.6V14.4h11.6V66.9z"/>
	<path class="st0" d="M195.9,67.6c-5.7,0-10.3-1.7-13.8-5.1c-3.5-3.4-5.3-7.8-5.3-13.2v-1c0-3.8,0.7-7.1,2.1-10
		c1.4-2.9,3.4-5.1,6.1-6.7c2.7-1.6,5.9-2.4,9.6-2.4c5.2,0,9.3,1.6,12.3,4.8c3,3.2,4.5,7.7,4.5,13.5V52h-22.9
		c0.4,2.1,1.3,3.7,2.7,4.9c1.4,1.2,3.2,1.8,5.4,1.8c3.6,0,6.5-1.3,8.5-3.8l5.3,6.2c-1.4,2-3.5,3.6-6.1,4.7
		C201.8,67,198.9,67.6,195.9,67.6z M194.6,38.1c-3.4,0-5.4,2.2-6,6.7h11.6v-0.9c0-1.8-0.4-3.3-1.4-4.3
		C197.8,38.6,196.4,38.1,194.6,38.1z"/>
	<g id="Layer_2">
	</g>
</g>
<g id="Layer_3">
	<image style="overflow:visible;" width="1125" height="1068" xlink:href="197936D5.jpg"  transform="matrix(1 0 0 1 -8037 -8152)">
	</image>
	<g>
		<path class="st1" d="M27.5,81.4h-1.8c-2,0-3.6-1.6-3.6-3.6V67.6H31v10.2C31,79.8,29.5,81.4,27.5,81.4z"/>
		<path class="st2" d="M46.7,54.6L46.7,54.6c0,5.4-2.1,10.1-5,13.8c-0.3,0.4-0.7,0.8-1,1.2c-0.1,0.2-0.3,0.3-0.4,0.5
			c-2.8,3.1-6.1,5.4-8.8,6.8c-0.1-0.4-0.2-0.9-0.3-1.3c-0.7-2.8-2.1-5.5-4.5-5.6c0,0,0,0,0,0h0c-2.3,0-3.7,2.6-4.4,5.3
			c-0.1,0.5-0.3,1.1-0.4,1.6c-2.8-1.4-6-3.7-8.8-6.8c-0.1-0.2-0.3-0.3-0.4-0.5c-0.3-0.4-0.7-0.8-1-1.2c-2.8-3.7-4.9-8.2-5-13.4
			c0-0.1,0-0.2,0-0.3C6.5,40.7,11.6,32,17,31.4c0,0,0,0,0,0c0,0,0,0,0,0c0.2,0,0.4,0,0.5,0h1.1c4.9,0,5.9,0,7.9,0c1.7,0,6,0,8,0
			c0.1,0,0.2,0,0.3,0c0,0,0,0,0.1,0c0.4,0,0.6,0,0.6,0c0.2,0,0.3,0,0.5,0C41.5,31.9,46.7,40.7,46.7,54.6z"/>
		<path class="st3" d="M37.8,69.8c0,0.4,0,0.7,0,1c-0.4,4.1-2.9,6.2-5.5,7.4c-0.8,0.4-1.7-0.3-2.1-1.4c0-0.1-0.1-0.2-0.1-0.4
			c-0.5-2.5-1.5-4.9-3.4-4.9h0c-2,0-3,2.4-3.5,4.9c0,0.1,0,0.1,0,0.2c-0.3,1.3-1.2,2-2.1,1.6c-2.6-1.1-5.1-3.3-5.5-7.4
			c0-0.3,0-0.7,0-1c0-0.1,0-0.1,0-0.2c0-0.3,0-0.5,0-0.8c0.3-8.4,4-11.9,11.1-11.9h0c7.1,0,10.8,3.5,11.1,11.9c0,0.3,0,0.5,0,0.8
			C37.8,69.7,37.8,69.7,37.8,69.8z"/>
		<path class="st4" d="M31.6,64.8c-1.4,3-2.8,4.4-5,4.4s-3.7-1.4-5-4.4c-1.1-2.6,3.4-3.4,5-3.4C28.2,61.4,32.7,62.2,31.6,64.8z"/>
		<g>
			<g>
				<ellipse class="st5" cx="17.4" cy="50.2" rx="1.6" ry="3.2"/>
				<ellipse class="st5" cx="35.7" cy="50.2" rx="1.6" ry="3.2"/>
			</g>
		</g>
		<g>
			<g>
				<path class="st6" d="M18.7,31.4c0,0-10,0-12.3,1.6c-2.2,1.5-8.2,12.8-5.2,21.8C5.4,67,11.4,38.5,18.7,31.4z"/>
				<path class="st6" d="M52.1,54.8c-1.6,4.6-3.4,3.4-5.4-0.1c-3.4-6-7.4-18.7-12-23.2c0,0,0,0,0,0c0,0,0,0,0,0c0,0,0.1,0,0.3,0
					c0,0,0,0,0.1,0c0.3,0,0.6,0,1.1,0c2.9,0.1,9.1,0.4,10.8,1.6C49.1,34.5,55.1,45.9,52.1,54.8z"/>
			</g>
		</g>
	</g>
	<g>
		<path class="st1" d="M42.6,51h-2.1c-2.3,0-4.2-1.9-4.2-4.2v-9.5h10.6v9.5C46.8,49.1,44.9,51,42.6,51z"/>
		<path class="st7" d="M65.3,24.2L65.3,24.2c0,5.4-2.5,10.1-6,13.8c-0.4,0.4-0.8,0.8-1.2,1.2c-0.2,0.2-0.3,0.3-0.5,0.5
			c-3.3,3.1-7.2,5.4-10.5,6.8c-0.1-0.4-0.2-0.9-0.4-1.3c-0.9-2.8-2.5-5.5-5.3-5.6c0,0,0,0,0,0h0c-2.8,0-4.4,2.6-5.2,5.3
			c-0.2,0.5-0.3,1.1-0.5,1.6c-3.3-1.4-7.1-3.7-10.5-6.8c-0.2-0.2-0.3-0.3-0.5-0.5c-0.4-0.4-0.8-0.8-1.2-1.2
			c-3.4-3.7-5.8-8.2-5.9-13.4c0-0.1,0-0.2,0-0.3c0-13.9,6.1-22.6,12.5-23.2c0,0,0,0,0,0c0,0,0,0,0,0c0.2,0,0.4,0,0.6,0h1.3
			c5.8,0,7,0,9.3,0c2,0,7.2,0,9.5,0c0.1,0,0.3,0,0.4,0c0,0,0,0,0.1,0c0.4,0,0.7,0,0.7,0c0.2,0,0.4,0,0.6,0
			C59.2,1.6,65.3,10.3,65.3,24.2z"/>
		<path class="st8" d="M24.9,39.3c-0.7-0.5-1.2-1-1.6-1.4c-0.3-0.3-0.5-0.6-0.8-1c-0.5-0.6-0.8-1-0.9-1.2c-0.6-0.8-0.8-1.2-0.9-1.4
			c-0.6-1.6,2.5-4.1,3.1-4.7c0.9-0.7,2-1.6,3.8-2.2c2.3-0.7,4.2-0.3,5.1-0.1"/>
		<path class="st8" d="M58.2,39.3c0.7-0.5,1.2-1,1.6-1.4c0.3-0.3,0.5-0.6,0.8-1c0.5-0.6,0.8-1,0.9-1.2c0.6-0.8,0.8-1.2,0.9-1.4
			c0.6-1.6-2.5-4.1-3.1-4.7c-0.9-0.7-2-1.6-3.8-2.2c-2.3-0.7-4.2-0.3-5.1-0.1"/>
		<path class="st9" d="M58.2,39.4c0,0.4,0,0.7-0.1,1c-0.6,4.1-4.3,6.2-8.2,7.4c-1.3,0.4-2.6-0.3-3.1-1.4c-0.1-0.1-0.1-0.2-0.1-0.4
			c-0.7-2.5-2.2-4.9-5.2-4.9h0c-3,0-4.5,2.4-5.2,4.9c0,0.1,0,0.1-0.1,0.2c-0.5,1.3-1.9,2-3.2,1.6c-3.9-1.1-7.7-3.3-8.2-7.4
			c0-0.3-0.1-0.7-0.1-1c0-0.1,0-0.1,0-0.2c0-0.3,0-0.5,0-0.8c0-0.2,0.3-4.1,2.4-7.2c2.2-3.2,5.3-4.3,6.7-4.8
			c1.4-0.5,2.6-0.7,3.5-0.8c1.7-3.5,2.3-6.5,2.5-8.5c0.3-3.4-0.3-5,0.2-9.8c0.1-1.1,0.6-6.2,1.4-6.2c0.7,0,1.4,3.6,1.7,5.9
			c0.6,4.6-0.2,6.4,0,10.1c0.1,2,0.6,4.9,2.2,8.5c0.7,0.1,6.8,0.7,10.3,5.7C58.2,34.8,58.2,38.9,58.2,39.4z"/>
		<path class="st10" d="M47.4,34.4c-1.6,3-3.3,4.4-6,4.4s-4.4-1.4-6-4.4c-1.3-2.6,4-3.4,6-3.4C43.5,31,48.8,31.8,47.4,34.4z"/>
		<g>
			<ellipse class="st11" cx="30.7" cy="19.8" rx="1.9" ry="3.2"/>
			<ellipse class="st11" cx="52.3" cy="19.8" rx="1.9" ry="3.2"/>
		</g>
		<g>
			<g>
				<path class="st12" d="M32.2,1c0,0-11.8,0-14.6,1.6C15,4.1,7.8,15.4,11.5,24.4C16.4,36.6,23.5,8.1,32.2,1z"/>
				<path class="st12" d="M71.7,24.5c-1.8,4.6-4,3.4-6.4-0.1c-4-6-8.8-18.7-14.3-23.2c0,0,0,0-0.1,0c0,0,0,0,0,0c0,0,0.1,0,0.4,0
					c0,0,0,0,0.1,0c0.3,0,0.7,0,1.3,0c3.4,0.1,10.7,0.4,12.9,1.6C68.2,4.1,75.4,15.5,71.7,24.5z"/>
			</g>
		</g>
		<path class="st9" d="M24.5,31"/>
		<ellipse class="st8" cx="30.7" cy="13.2" rx="2" ry="2.2"/>
		<ellipse class="st8" cx="52.3" cy="13.2" rx="2" ry="2.2"/>
	</g>
</g>
</svg>
